<svg xmlns="http://www.w3.org/2000/svg" width="12" height="12" viewBox="0 0 12 12">
  <g fill="none" fill-rule="evenodd">
    <circle cx="6" cy="6" r="6" fill="#FFF"/>
    <path fill="#000" d="M2.9115,5.8815 C2.9115,5.31449716 3.0014991,4.82400207 3.1815,4.41 C3.3615009,3.99599793 3.60899843,3.65400135 3.924,3.384 C4.23900158,3.11399865 4.60574791,2.91375065 5.02425,2.78325 C5.44275209,2.65274935 5.89049762,2.5875 6.3675,2.5875 C6.67350153,2.5875 6.97724849,2.6077498 7.27875,2.64825 C7.58025151,2.6887502 7.90199829,2.76299946 8.244,2.871 L7.9875,3.8295 C7.69049852,3.72149946 7.41825124,3.65175016 7.17075,3.62025 C6.92324876,3.58874984 6.67350126,3.573 6.4215,3.573 C6.09749838,3.573 5.79150144,3.61574957 5.5035,3.70125 C5.21549856,3.78675043 4.96575106,3.92174908 4.75425,4.10625 C4.54274894,4.29075092 4.37400063,4.52924854 4.248,4.82175 C4.12199937,5.11425146 4.059,5.46749793 4.059,5.8815 C4.059,6.27750198 4.11749942,6.61724858 4.2345,6.90075 C4.35150059,7.18425142 4.51574894,7.41824908 4.72725,7.60275 C4.93875106,7.78725092 5.19299852,7.92449955 5.49,8.0145 C5.78700149,8.10450045 6.1154982,8.1495 6.4755,8.1495 C6.76350144,8.1495 7.04024867,8.13375016 7.30575,8.10225 C7.57125133,8.07074984 7.86149843,8.00100054 8.1765,7.893 L8.3385,8.8245 C8.02349843,8.94150059 7.70400162,9.02474975 7.38,9.07425 C7.05599838,9.12375025 6.70500189,9.1485 6.327,9.1485 C5.82299748,9.1485 5.36175209,9.0787507 4.94325,8.93925 C4.52474791,8.7997493 4.16475151,8.59500135 3.86325,8.325 C3.56174849,8.05499865 3.32775083,7.71525205 3.16125,7.30575 C2.99474917,6.89624795 2.9115,6.4215027 2.9115,5.8815 Z"/>
  </g>
</svg>
